<mxfile host="app.diagrams.net" modified="2023-12-18T10:23:29.100Z" agent="Mozilla/5.0 (Windows NT 10.0; Win64; x64; rv:120.0) Gecko/20100101 Firefox/120.0" etag="JRfbkSmb9DM-5HedKAmk" version="22.1.11" type="device">
  <diagram name="Sayfa -1" id="PlrxfK7u4_De4P8E3xAn">
    <mxGraphModel dx="733" dy="385" grid="1" gridSize="10" guides="1" tooltips="1" connect="1" arrows="1" fold="1" page="1" pageScale="1" pageWidth="827" pageHeight="1169" background="#FFFFFF" math="0" shadow="0">
      <root>
        <mxCell id="0" />
        <mxCell id="1" parent="0" />
        <mxCell id="ZakRo_cIY6PMTPK47GxH-6" value="" style="edgeStyle=orthogonalEdgeStyle;rounded=0;orthogonalLoop=1;jettySize=auto;html=1;" edge="1" parent="1" source="ZakRo_cIY6PMTPK47GxH-1" target="ZakRo_cIY6PMTPK47GxH-3">
          <mxGeometry relative="1" as="geometry" />
        </mxCell>
        <mxCell id="ZakRo_cIY6PMTPK47GxH-18" value="Web Server" style="edgeLabel;html=1;align=center;verticalAlign=middle;resizable=0;points=[];" vertex="1" connectable="0" parent="ZakRo_cIY6PMTPK47GxH-6">
          <mxGeometry y="-1" relative="1" as="geometry">
            <mxPoint x="1" as="offset" />
          </mxGeometry>
        </mxCell>
        <mxCell id="ZakRo_cIY6PMTPK47GxH-1" value="Request" style="rounded=1;whiteSpace=wrap;html=1;" vertex="1" parent="1">
          <mxGeometry x="195" y="105" width="190" height="50" as="geometry" />
        </mxCell>
        <mxCell id="ZakRo_cIY6PMTPK47GxH-13" value="" style="edgeStyle=orthogonalEdgeStyle;rounded=0;orthogonalLoop=1;jettySize=auto;html=1;" edge="1" parent="1" source="ZakRo_cIY6PMTPK47GxH-3" target="ZakRo_cIY6PMTPK47GxH-7">
          <mxGeometry relative="1" as="geometry" />
        </mxCell>
        <mxCell id="ZakRo_cIY6PMTPK47GxH-3" value="Kernel" style="rounded=1;whiteSpace=wrap;html=1;" vertex="1" parent="1">
          <mxGeometry x="195" y="200" width="190" height="30" as="geometry" />
        </mxCell>
        <mxCell id="ZakRo_cIY6PMTPK47GxH-22" value="" style="edgeStyle=orthogonalEdgeStyle;rounded=0;orthogonalLoop=1;jettySize=auto;html=1;" edge="1" parent="1" source="ZakRo_cIY6PMTPK47GxH-7" target="ZakRo_cIY6PMTPK47GxH-20">
          <mxGeometry relative="1" as="geometry" />
        </mxCell>
        <mxCell id="ZakRo_cIY6PMTPK47GxH-7" value="Service Providers" style="rounded=1;whiteSpace=wrap;html=1;" vertex="1" parent="1">
          <mxGeometry x="195" y="250" width="190" height="30" as="geometry" />
        </mxCell>
        <mxCell id="ZakRo_cIY6PMTPK47GxH-41" value="" style="edgeStyle=orthogonalEdgeStyle;rounded=0;orthogonalLoop=1;jettySize=auto;html=1;" edge="1" parent="1" source="ZakRo_cIY6PMTPK47GxH-20" target="ZakRo_cIY6PMTPK47GxH-40">
          <mxGeometry relative="1" as="geometry" />
        </mxCell>
        <mxCell id="ZakRo_cIY6PMTPK47GxH-45" value="Route Matched" style="edgeLabel;html=1;align=center;verticalAlign=middle;resizable=0;points=[];" vertex="1" connectable="0" parent="ZakRo_cIY6PMTPK47GxH-41">
          <mxGeometry x="0.0667" y="1" relative="1" as="geometry">
            <mxPoint x="-1" y="-2" as="offset" />
          </mxGeometry>
        </mxCell>
        <mxCell id="ZakRo_cIY6PMTPK47GxH-85" value="" style="edgeStyle=orthogonalEdgeStyle;rounded=0;orthogonalLoop=1;jettySize=auto;html=1;" edge="1" parent="1" source="ZakRo_cIY6PMTPK47GxH-20" target="ZakRo_cIY6PMTPK47GxH-84">
          <mxGeometry relative="1" as="geometry" />
        </mxCell>
        <mxCell id="ZakRo_cIY6PMTPK47GxH-20" value="Router" style="rounded=1;whiteSpace=wrap;html=1;" vertex="1" parent="1">
          <mxGeometry x="200" y="350" width="180" height="30" as="geometry" />
        </mxCell>
        <mxCell id="ZakRo_cIY6PMTPK47GxH-129" value="" style="edgeStyle=orthogonalEdgeStyle;rounded=0;orthogonalLoop=1;jettySize=auto;html=1;exitX=0.5;exitY=1;exitDx=0;exitDy=0;" edge="1" parent="1" source="ZakRo_cIY6PMTPK47GxH-25">
          <mxGeometry relative="1" as="geometry">
            <mxPoint x="290" y="310" as="targetPoint" />
            <Array as="points">
              <mxPoint x="504" y="310" />
            </Array>
          </mxGeometry>
        </mxCell>
        <mxCell id="ZakRo_cIY6PMTPK47GxH-136" value="&lt;div&gt;Blade Directives&lt;/div&gt;&lt;div&gt;Helpers&lt;/div&gt;&lt;div&gt;Localizer Singleton&lt;/div&gt;&lt;div&gt;Database Model&lt;br&gt;&lt;/div&gt;" style="edgeLabel;html=1;align=center;verticalAlign=middle;resizable=0;points=[];" vertex="1" connectable="0" parent="ZakRo_cIY6PMTPK47GxH-129">
          <mxGeometry x="-0.7848" relative="1" as="geometry">
            <mxPoint y="5" as="offset" />
          </mxGeometry>
        </mxCell>
        <mxCell id="ZakRo_cIY6PMTPK47GxH-25" value="LocalizationServiceProvider" style="rounded=0;whiteSpace=wrap;html=1;" vertex="1" parent="1">
          <mxGeometry x="414" y="192.5" width="180" height="45" as="geometry" />
        </mxCell>
        <mxCell id="ZakRo_cIY6PMTPK47GxH-35" value="&lt;h2&gt;Service Provider&lt;br&gt;&lt;/h2&gt;&lt;p&gt;Blade Directives, Localization Singleton, Database Models and stuff like that registered at this step.&lt;br&gt;&lt;/p&gt;" style="text;html=1;strokeColor=#82b366;fillColor=#d5e8d4;spacing=5;spacingTop=-20;whiteSpace=wrap;overflow=hidden;rounded=0;" vertex="1" parent="1">
          <mxGeometry x="647" y="190" width="216" height="120" as="geometry" />
        </mxCell>
        <mxCell id="ZakRo_cIY6PMTPK47GxH-55" value="" style="edgeStyle=orthogonalEdgeStyle;rounded=0;orthogonalLoop=1;jettySize=auto;html=1;" edge="1" parent="1" source="ZakRo_cIY6PMTPK47GxH-40" target="ZakRo_cIY6PMTPK47GxH-54">
          <mxGeometry relative="1" as="geometry" />
        </mxCell>
        <mxCell id="ZakRo_cIY6PMTPK47GxH-40" value="View (Blade Compiler)" style="rounded=1;whiteSpace=wrap;html=1;" vertex="1" parent="1">
          <mxGeometry x="200" y="440" width="180" height="30" as="geometry" />
        </mxCell>
        <mxCell id="ZakRo_cIY6PMTPK47GxH-108" value="" style="edgeStyle=orthogonalEdgeStyle;rounded=0;orthogonalLoop=1;jettySize=auto;html=1;" edge="1" parent="1" source="ZakRo_cIY6PMTPK47GxH-43" target="ZakRo_cIY6PMTPK47GxH-1">
          <mxGeometry relative="1" as="geometry" />
        </mxCell>
        <mxCell id="ZakRo_cIY6PMTPK47GxH-43" value="User" style="whiteSpace=wrap;html=1;rounded=1;fillColor=#fad7ac;strokeColor=#b46504;" vertex="1" parent="1">
          <mxGeometry x="432.5" y="100" width="120" height="60" as="geometry" />
        </mxCell>
        <mxCell id="ZakRo_cIY6PMTPK47GxH-57" value="" style="edgeStyle=orthogonalEdgeStyle;rounded=0;orthogonalLoop=1;jettySize=auto;html=1;" edge="1" parent="1" source="ZakRo_cIY6PMTPK47GxH-54" target="ZakRo_cIY6PMTPK47GxH-56">
          <mxGeometry relative="1" as="geometry" />
        </mxCell>
        <mxCell id="ZakRo_cIY6PMTPK47GxH-102" value="Add Translation to the Queue" style="edgeLabel;html=1;align=center;verticalAlign=middle;resizable=0;points=[];" vertex="1" connectable="0" parent="ZakRo_cIY6PMTPK47GxH-57">
          <mxGeometry x="0.0818" y="-1" relative="1" as="geometry">
            <mxPoint x="-19" y="-1" as="offset" />
          </mxGeometry>
        </mxCell>
        <mxCell id="ZakRo_cIY6PMTPK47GxH-70" value="" style="edgeStyle=orthogonalEdgeStyle;rounded=0;orthogonalLoop=1;jettySize=auto;html=1;" edge="1" parent="1" source="ZakRo_cIY6PMTPK47GxH-54" target="ZakRo_cIY6PMTPK47GxH-68">
          <mxGeometry relative="1" as="geometry" />
        </mxCell>
        <mxCell id="ZakRo_cIY6PMTPK47GxH-72" value="&amp;lt;?php echo getCachedTranslation(&quot;key.to.translate&quot;) ?&amp;gt;" style="edgeLabel;html=1;align=center;verticalAlign=middle;resizable=0;points=[];" vertex="1" connectable="0" parent="ZakRo_cIY6PMTPK47GxH-70">
          <mxGeometry x="-0.2" y="-1" relative="1" as="geometry">
            <mxPoint x="1" y="2" as="offset" />
          </mxGeometry>
        </mxCell>
        <mxCell id="ZakRo_cIY6PMTPK47GxH-54" value="&lt;div&gt;Blade Directive&lt;br&gt;&lt;/div&gt;&lt;div&gt;@t(&quot;key.to.translation&quot;)&lt;/div&gt;" style="whiteSpace=wrap;html=1;rounded=1;" vertex="1" parent="1">
          <mxGeometry x="190" y="520" width="200" height="50" as="geometry" />
        </mxCell>
        <mxCell id="ZakRo_cIY6PMTPK47GxH-122" value="" style="edgeStyle=orthogonalEdgeStyle;rounded=0;orthogonalLoop=1;jettySize=auto;html=1;" edge="1" parent="1" source="ZakRo_cIY6PMTPK47GxH-56" target="ZakRo_cIY6PMTPK47GxH-105">
          <mxGeometry relative="1" as="geometry" />
        </mxCell>
        <mxCell id="ZakRo_cIY6PMTPK47GxH-56" value="Translation Queue" style="html=1;whiteSpace=wrap;fillColor=#f8cecc;gradientColor=#ea6b66;strokeColor=#b85450;" vertex="1" parent="1">
          <mxGeometry x="604" y="520" width="186" height="50" as="geometry" />
        </mxCell>
        <mxCell id="ZakRo_cIY6PMTPK47GxH-109" style="edgeStyle=orthogonalEdgeStyle;rounded=0;orthogonalLoop=1;jettySize=auto;html=1;exitX=1;exitY=0.5;exitDx=0;exitDy=0;entryX=0.5;entryY=0;entryDx=0;entryDy=0;" edge="1" parent="1" source="ZakRo_cIY6PMTPK47GxH-62" target="ZakRo_cIY6PMTPK47GxH-56">
          <mxGeometry relative="1" as="geometry" />
        </mxCell>
        <mxCell id="ZakRo_cIY6PMTPK47GxH-62" value="Fetch Translations" style="rounded=1;whiteSpace=wrap;html=1;" vertex="1" parent="1">
          <mxGeometry x="432.5" y="425" width="186" height="60" as="geometry" />
        </mxCell>
        <mxCell id="ZakRo_cIY6PMTPK47GxH-119" value="" style="edgeStyle=orthogonalEdgeStyle;rounded=0;orthogonalLoop=1;jettySize=auto;html=1;" edge="1" parent="1" source="ZakRo_cIY6PMTPK47GxH-66" target="ZakRo_cIY6PMTPK47GxH-112">
          <mxGeometry relative="1" as="geometry" />
        </mxCell>
        <mxCell id="ZakRo_cIY6PMTPK47GxH-120" value="getCachedTranslation()" style="edgeLabel;html=1;align=center;verticalAlign=middle;resizable=0;points=[];" vertex="1" connectable="0" parent="ZakRo_cIY6PMTPK47GxH-119">
          <mxGeometry x="-0.3533" y="1" relative="1" as="geometry">
            <mxPoint x="-11" y="1" as="offset" />
          </mxGeometry>
        </mxCell>
        <mxCell id="ZakRo_cIY6PMTPK47GxH-66" value="PHP Document" style="rounded=1;whiteSpace=wrap;html=1;" vertex="1" parent="1">
          <mxGeometry x="660" y="335" width="190" height="60" as="geometry" />
        </mxCell>
        <mxCell id="ZakRo_cIY6PMTPK47GxH-80" style="edgeStyle=orthogonalEdgeStyle;rounded=0;orthogonalLoop=1;jettySize=auto;html=1;entryX=0;entryY=0.5;entryDx=0;entryDy=0;" edge="1" parent="1" source="ZakRo_cIY6PMTPK47GxH-68" target="ZakRo_cIY6PMTPK47GxH-20">
          <mxGeometry relative="1" as="geometry">
            <Array as="points">
              <mxPoint x="120" y="650" />
              <mxPoint x="120" y="365" />
            </Array>
          </mxGeometry>
        </mxCell>
        <mxCell id="ZakRo_cIY6PMTPK47GxH-68" value="PHP Document" style="rounded=0;whiteSpace=wrap;html=1;" vertex="1" parent="1">
          <mxGeometry x="210" y="630" width="160" height="40" as="geometry" />
        </mxCell>
        <mxCell id="ZakRo_cIY6PMTPK47GxH-98" value="" style="edgeStyle=orthogonalEdgeStyle;rounded=0;orthogonalLoop=1;jettySize=auto;html=1;" edge="1" parent="1" source="ZakRo_cIY6PMTPK47GxH-84" target="ZakRo_cIY6PMTPK47GxH-62">
          <mxGeometry relative="1" as="geometry" />
        </mxCell>
        <mxCell id="ZakRo_cIY6PMTPK47GxH-117" value="" style="edgeStyle=orthogonalEdgeStyle;rounded=0;orthogonalLoop=1;jettySize=auto;html=1;" edge="1" parent="1" source="ZakRo_cIY6PMTPK47GxH-84" target="ZakRo_cIY6PMTPK47GxH-66">
          <mxGeometry relative="1" as="geometry" />
        </mxCell>
        <mxCell id="ZakRo_cIY6PMTPK47GxH-84" value="&lt;div&gt;Event Dispatcher&lt;/div&gt;&lt;div&gt;RequestHandled&lt;br&gt;&lt;/div&gt;" style="rounded=1;whiteSpace=wrap;html=1;" vertex="1" parent="1">
          <mxGeometry x="420" y="333.75" width="211" height="62.5" as="geometry" />
        </mxCell>
        <mxCell id="ZakRo_cIY6PMTPK47GxH-113" style="edgeStyle=orthogonalEdgeStyle;rounded=0;orthogonalLoop=1;jettySize=auto;html=1;exitX=1;exitY=0.5;exitDx=0;exitDy=0;exitPerimeter=0;entryX=0.5;entryY=1;entryDx=0;entryDy=0;" edge="1" parent="1" source="ZakRo_cIY6PMTPK47GxH-105" target="ZakRo_cIY6PMTPK47GxH-112">
          <mxGeometry relative="1" as="geometry" />
        </mxCell>
        <mxCell id="ZakRo_cIY6PMTPK47GxH-105" value="Database" style="shape=cylinder3;whiteSpace=wrap;html=1;boundedLbl=1;backgroundOutline=1;size=15;fillColor=#b1ddf0;strokeColor=#10739e;" vertex="1" parent="1">
          <mxGeometry x="838" y="468.75" width="114.38" height="152.5" as="geometry" />
        </mxCell>
        <mxCell id="ZakRo_cIY6PMTPK47GxH-126" value="" style="edgeStyle=orthogonalEdgeStyle;rounded=0;orthogonalLoop=1;jettySize=auto;html=1;" edge="1" parent="1" source="ZakRo_cIY6PMTPK47GxH-112" target="ZakRo_cIY6PMTPK47GxH-125">
          <mxGeometry relative="1" as="geometry" />
        </mxCell>
        <mxCell id="ZakRo_cIY6PMTPK47GxH-112" value="Translation Cache" style="rounded=0;whiteSpace=wrap;html=1;fillColor=#f8cecc;gradientColor=#ea6b66;strokeColor=#b85450;" vertex="1" parent="1">
          <mxGeometry x="920" y="220" width="190" height="60" as="geometry" />
        </mxCell>
        <mxCell id="ZakRo_cIY6PMTPK47GxH-128" value="" style="edgeStyle=orthogonalEdgeStyle;rounded=0;orthogonalLoop=1;jettySize=auto;html=1;" edge="1" parent="1" source="ZakRo_cIY6PMTPK47GxH-115" target="ZakRo_cIY6PMTPK47GxH-43">
          <mxGeometry relative="1" as="geometry" />
        </mxCell>
        <mxCell id="ZakRo_cIY6PMTPK47GxH-115" value="Response" style="whiteSpace=wrap;html=1;rounded=1;" vertex="1" parent="1">
          <mxGeometry x="651" y="100" width="187" height="60" as="geometry" />
        </mxCell>
        <mxCell id="ZakRo_cIY6PMTPK47GxH-127" value="" style="edgeStyle=orthogonalEdgeStyle;rounded=0;orthogonalLoop=1;jettySize=auto;html=1;" edge="1" parent="1" source="ZakRo_cIY6PMTPK47GxH-125" target="ZakRo_cIY6PMTPK47GxH-115">
          <mxGeometry relative="1" as="geometry" />
        </mxCell>
        <mxCell id="ZakRo_cIY6PMTPK47GxH-125" value="Document" style="rounded=1;whiteSpace=wrap;html=1;" vertex="1" parent="1">
          <mxGeometry x="937.5" y="100" width="155" height="60" as="geometry" />
        </mxCell>
      </root>
    </mxGraphModel>
  </diagram>
</mxfile>
